<svg width="112" height="44" viewBox="0 0 112 44" fill="none" xmlns="http://www.w3.org/2000/svg">
<path opacity="0.8" fill-rule="evenodd" clip-rule="evenodd" d="M18 0C8.05887 0 0 8.05888 0 18C0 27.9411 8.05887 36 18 36H21.5L29.5 44L37.5 36H94C103.941 36 112 27.9411 112 18C112 8.05888 103.941 0 94 0H18Z" fill="#4A5257"/>
<path d="M56 6V30" stroke="white" stroke-linecap="round" stroke-linejoin="round"/>
<path d="M30.0096 15.6289C29.4256 15.6289 28.8787 15.8555 28.4647 16.2695C28.0526 16.6836 27.824 17.2305 27.824 17.8145C27.824 18.3984 28.0526 18.9453 28.4647 19.3594C28.8787 19.7715 29.4256 20 30.0096 20C30.5936 20 31.1405 19.7715 31.5545 19.3594C31.9666 18.9453 32.1951 18.3984 32.1951 17.8145C32.1951 17.2305 31.9666 16.6836 31.5545 16.2695C31.3523 16.0657 31.1116 15.9042 30.8463 15.7942C30.5811 15.6842 30.2967 15.628 30.0096 15.6289ZM38.0623 20.2285L36.785 19.1367C36.8455 18.7656 36.8768 18.3867 36.8768 18.0098C36.8768 17.6328 36.8455 17.252 36.785 16.8828L38.0623 15.791C38.1588 15.7084 38.2279 15.5984 38.2603 15.4756C38.2928 15.3528 38.2871 15.223 38.244 15.1035L38.2264 15.0527C37.8749 14.0697 37.3481 13.1585 36.6717 12.3633L36.6365 12.3223C36.5544 12.2257 36.4449 12.1563 36.3226 12.1231C36.2002 12.09 36.0706 12.0948 35.951 12.1367L34.3651 12.7012C33.7791 12.2207 33.1268 11.8418 32.4197 11.5781L32.1131 9.91992C32.09 9.795 32.0294 9.68008 31.9394 9.59043C31.8494 9.50077 31.7342 9.44062 31.6092 9.41797L31.5565 9.4082C30.5408 9.22461 29.4705 9.22461 28.4549 9.4082L28.4022 9.41797C28.2772 9.44062 28.162 9.50077 28.072 9.59043C27.982 9.68008 27.9214 9.795 27.8983 9.91992L27.5897 11.5859C26.8893 11.8517 26.2369 12.2297 25.658 12.7051L24.0604 12.1367C23.9408 12.0944 23.8111 12.0895 23.6887 12.1227C23.5662 12.1558 23.4568 12.2254 23.3748 12.3223L23.3397 12.3633C22.6645 13.1594 22.1379 14.0703 21.785 15.0527L21.7674 15.1035C21.6795 15.3477 21.7518 15.6211 21.949 15.791L23.242 16.8945C23.1815 17.2617 23.1522 17.6367 23.1522 18.0078C23.1522 18.3828 23.1815 18.7578 23.242 19.1211L21.953 20.2246C21.8565 20.3072 21.7874 20.4172 21.755 20.54C21.7225 20.6629 21.7282 20.7926 21.7713 20.9121L21.7889 20.9629C22.1424 21.9453 22.6639 22.8535 23.3436 23.6523L23.3787 23.6934C23.4609 23.7899 23.5703 23.8594 23.6927 23.8925C23.8151 23.9256 23.9446 23.9209 24.0643 23.8789L25.6619 23.3105C26.244 23.7891 26.8924 24.168 27.5936 24.4297L27.9022 26.0957C27.9253 26.2206 27.9859 26.3355 28.0759 26.4252C28.1659 26.5149 28.2811 26.575 28.4061 26.5977L28.4588 26.6074C29.4844 26.792 30.5348 26.792 31.5604 26.6074L31.6131 26.5977C31.7381 26.575 31.8533 26.5149 31.9433 26.4252C32.0333 26.3355 32.0939 26.2206 32.117 26.0957L32.4237 24.4375C33.1307 24.1719 33.783 23.7949 34.369 23.3145L35.9549 23.8789C36.0745 23.9212 36.2041 23.9261 36.3266 23.893C36.449 23.8598 36.5585 23.7902 36.6405 23.6934L36.6756 23.6523C37.3553 22.8496 37.8768 21.9453 38.2303 20.9629L38.2479 20.9121C38.3319 20.6699 38.2596 20.3984 38.0623 20.2285ZM30.0096 21.248C28.1131 21.248 26.576 19.7109 26.576 17.8145C26.576 15.918 28.1131 14.3809 30.0096 14.3809C31.9061 14.3809 33.4432 15.918 33.4432 17.8145C33.4432 19.7109 31.9061 21.248 30.0096 21.248Z" fill="white"/>
<g opacity="0.7">
<path d="M88.875 13H86.375V11.4375C86.375 10.748 85.8145 10.1875 85.125 10.1875H78.875C78.1855 10.1875 77.625 10.748 77.625 11.4375V13H75.125C74.7793 13 74.5 13.2793 74.5 13.625V14.25C74.5 14.3359 74.5703 14.4062 74.6562 14.4062H75.8359L76.3184 24.6211C76.3496 25.2871 76.9004 25.8125 77.5664 25.8125H86.4336C87.1016 25.8125 87.6504 25.2891 87.6816 24.6211L88.1641 14.4062H89.3438C89.4297 14.4062 89.5 14.3359 89.5 14.25V13.625C89.5 13.2793 89.2207 13 88.875 13ZM84.9688 13H79.0312V11.5938H84.9688V13Z" fill="white"/>
</g>
</svg>
